<svg xmlns="http://www.w3.org/2000/svg" width="1600" height="900" viewBox="0 0 1600 900"><defs><marker id="arrow" markerWidth="10" markerHeight="10" refX="8" refY="3" orient="auto"><path d="M0,0 L8,3 L0,6" fill="none" stroke="#9c36b5" stroke-width="1"/></marker></defs><rect x="0" y="0" width="1600" height="900" rx="14" fill="#ffffff" stroke="#ffffff" stroke-width="2"/><rect x="58" y="72" width="10" height="130" rx="14" fill="#e5dbff" stroke="#9c36b5" stroke-width="2"/><text x="100" y="114.0" fill="#1e1e1e" font-family="Arial,sans-serif" font-size="44">Abra a criação dentro da Factory</text><text x="100" y="173.0" fill="#687078" font-family="Arial,sans-serif" font-size="28">Uma Factory conhece classes concretas e devolve um objeto pelo contrato usado pelo</text><text x="100" y="208.0" fill="#687078" font-family="Arial,sans-serif" font-size="28">cliente.</text><rect x="100" y="280" width="360" height="120" rx="14" fill="#fff3bf" stroke="#e67700" stroke-width="2"/><text x="125" y="351.0294117647059" fill="#1e1e1e" font-family="Arial,sans-serif" font-size="29.41176470588235">Fornecedor.LEGADO</text><path d="M470 340 L585 340" stroke="#9c36b5" stroke-width="3" fill="none" marker-end="url(#arrow)"/><text x="470" y="316.0" fill="#9c36b5" font-family="Arial,sans-serif" font-size="24">escolhe</text><rect x="600" y="245" width="890" height="200" rx="14" fill="#d0ebff" stroke="#1971c2" stroke-width="2"/><text x="630" y="310.0" fill="#1e1e1e" font-family="Courier New,monospace" font-size="30">new PagamentoLegadoAdapter(</text><text x="630" y="347.5" fill="#1e1e1e" font-family="Courier New,monospace" font-size="30">    new SdkLegado());</text><rect x="100" y="530" width="360" height="120" rx="14" fill="#d3f9d8" stroke="#2b8a3e" stroke-width="2"/><text x="125" y="601.25" fill="#1e1e1e" font-family="Arial,sans-serif" font-size="30">Fornecedor.LOCAL</text><path d="M470 590 L585 590" stroke="#9c36b5" stroke-width="3" fill="none" marker-end="url(#arrow)"/><text x="470" y="566.0" fill="#9c36b5" font-family="Arial,sans-serif" font-size="24">escolhe</text><rect x="600" y="515" width="890" height="140" rx="14" fill="#d3f9d8" stroke="#2b8a3e" stroke-width="2"/><text x="640" y="590.0" fill="#1e1e1e" font-family="Courier New,monospace" font-size="30">new PagamentoLocal();</text><text x="100" y="810.0" fill="#9c36b5" font-family="Arial,sans-serif" font-size="25">PagamentoFactory conhece as implementações; Checkout recebe Pagamento sem consultar a Factory.</text><text x="1430" y="873.0" fill="#687078" font-family="Arial,sans-serif" font-size="18">05 / 18</text></svg>