<svg xmlns="http://www.w3.org/2000/svg" width="1600" height="900" viewBox="0 0 1600 900"><defs><marker id="arrow" markerWidth="10" markerHeight="10" refX="8" refY="3" orient="auto"><path d="M0,0 L8,3 L0,6" fill="none" stroke="#9c36b5" stroke-width="1"/></marker></defs><rect x="0" y="0" width="1600" height="900" rx="14" fill="#ffffff" stroke="#ffffff" stroke-width="2"/><rect x="58" y="72" width="10" height="130" rx="14" fill="#e5dbff" stroke="#9c36b5" stroke-width="2"/><text x="100" y="114.0" fill="#1e1e1e" font-family="Arial,sans-serif" font-size="44">Texto correto, unidade errada</text><text x="100" y="173.0" fill="#687078" font-family="Arial,sans-serif" font-size="28">Compatibilidade semântica exige preservar a unidade e o significado, além do tipo do dado.</text><rect x="100" y="285" width="360" height="160" rx="14" fill="#d0ebff" stroke="#1971c2" stroke-width="2"/><text x="125" y="338.75" fill="#1e1e1e" font-family="Arial,sans-serif" font-size="30">Intenção</text><text x="125" y="376.25" fill="#1e1e1e" font-family="Arial,sans-serif" font-size="30">9_000 centavos</text><text x="125" y="413.75" fill="#1e1e1e" font-family="Arial,sans-serif" font-size="30">R$ 90,00</text><path d="M470 365 L570 365" stroke="#9c36b5" stroke-width="3" fill="none" marker-end="url(#arrow)"/><text x="470" y="341.0" fill="#9c36b5" font-family="Arial,sans-serif" font-size="24">texto</text><rect x="585" y="285" width="390" height="160" rx="14" fill="#ffe3e3" stroke="#c92a2a" stroke-width="2"/><text x="610" y="357.7843803056027" fill="#1e1e1e" font-family="Arial,sans-serif" font-size="28.862478777589136">&quot;9000&quot;</text><text x="610" y="393.86247877758916" fill="#1e1e1e" font-family="Arial,sans-serif" font-size="28.862478777589136">texto sem conversão</text><path d="M985 365 L1080 365" stroke="#9c36b5" stroke-width="3" fill="none" marker-end="url(#arrow)"/><text x="985" y="341.0" fill="#9c36b5" font-family="Arial,sans-serif" font-size="24">SDK</text><rect x="1095" y="285" width="400" height="160" rx="14" fill="#ffe3e3" stroke="#c92a2a" stroke-width="2"/><text x="1120" y="357.5" fill="#1e1e1e" font-family="Arial,sans-serif" font-size="30">R$ 9.000</text><text x="1120" y="395.0" fill="#1e1e1e" font-family="Arial,sans-serif" font-size="30">100 × a intenção</text><text x="200" y="603.0" fill="#1e1e1e" font-family="Courier New,monospace" font-size="28">sdk.charge(Integer.toString(totalCentavos), &quot;BRL&quot;);</text><text x="100" y="810.0" fill="#9c36b5" font-family="Arial,sans-serif" font-size="25">Compila e executa; a incompatibilidade é semântica. Preveja o resultado antes de rodar.</text><text x="1430" y="873.0" fill="#687078" font-family="Arial,sans-serif" font-size="18">14 / 18</text></svg>