<svg xmlns="http://www.w3.org/2000/svg" width="1600" height="900" viewBox="0 0 1600 900"><defs><marker id="arrow" markerWidth="10" markerHeight="10" refX="8" refY="3" orient="auto"><path d="M0,0 L8,3 L0,6" fill="none" stroke="#9c36b5" stroke-width="1"/></marker></defs><rect x="0" y="0" width="1600" height="900" rx="14" fill="#ffffff" stroke="#ffffff" stroke-width="2"/><rect x="58" y="72" width="10" height="130" rx="14" fill="#e5dbff" stroke="#9c36b5" stroke-width="2"/><text x="100" y="114.0" fill="#1e1e1e" font-family="Arial,sans-serif" font-size="44">Separe quando a necessidade for observável</text><text x="100" y="173.0" fill="#687078" font-family="Arial,sans-serif" font-size="28">Um serviço separado isola escala quando capacidade e carga variam de forma independente.</text><rect x="90" y="285" width="650" height="355" rx="14" fill="#f1f3f5" stroke="#868e96" stroke-width="2"/><text x="125" y="335.0" fill="#1e1e1e" font-family="Arial,sans-serif" font-size="25">MUDAM E ESCALAM JUNTAS</text><rect x="135" y="390" width="235" height="135" rx="14" fill="#d0ebff" stroke="#1971c2" stroke-width="2"/><text x="160" y="431.6" fill="#1e1e1e" font-family="Arial,sans-serif" font-size="29.6">Equipe: 2</text><text x="160" y="468.6" fill="#1e1e1e" font-family="Arial,sans-serif" font-size="29.6">matrícula</text><text x="160" y="505.6" fill="#1e1e1e" font-family="Arial,sans-serif" font-size="29.6">cobrança</text><path d="M385 455 L455 455" stroke="#9c36b5" stroke-width="3" fill="none" marker-end="url(#arrow)"/><text x="385" y="431.0" fill="#9c36b5" font-family="Arial,sans-serif" font-size="24">local</text><rect x="470" y="390" width="220" height="135" rx="14" fill="#d3f9d8" stroke="#2b8a3e" stroke-width="2"/><text x="495" y="450.6451612903226" fill="#1e1e1e" font-family="Arial,sans-serif" font-size="27.419354838709676">1 artefato</text><text x="495" y="484.9193548387097" fill="#1e1e1e" font-family="Arial,sans-serif" font-size="27.419354838709676">menos ops</text><rect x="860" y="285" width="650" height="355" rx="14" fill="#f1f3f5" stroke="#868e96" stroke-width="2"/><text x="895" y="335.0" fill="#1e1e1e" font-family="Arial,sans-serif" font-size="25">CAPACIDADE COM CARGA PRÓPRIA</text><rect x="900" y="390" width="235" height="135" rx="14" fill="#d0ebff" stroke="#1971c2" stroke-width="2"/><text x="925" y="431.6" fill="#1e1e1e" font-family="Arial,sans-serif" font-size="29.6">Vídeos</text><text x="925" y="468.6" fill="#1e1e1e" font-family="Arial,sans-serif" font-size="29.6">simulação</text><text x="925" y="505.6" fill="#1e1e1e" font-family="Arial,sans-serif" font-size="29.6">10× carga</text><path d="M1150 455 L1220 455" stroke="#9c36b5" stroke-width="3" fill="none" marker-end="url(#arrow)"/><text x="1150" y="431.0" fill="#9c36b5" font-family="Arial,sans-serif" font-size="24">escala</text><rect x="1235" y="390" width="230" height="135" rx="14" fill="#d3f9d8" stroke="#2b8a3e" stroke-width="2"/><text x="1260" y="451.9168734491315" fill="#1e1e1e" font-family="Arial,sans-serif" font-size="22.332506203473947">Serviço B</text><text x="1260" y="479.83250620347394" fill="#1e1e1e" font-family="Arial,sans-serif" font-size="22.332506203473947">mais réplicas</text><text x="900" y="587.0" fill="#e67700" font-family="Arial,sans-serif" font-size="22">Preço: contratos, traces, plantão, dados</text><text x="900" y="614.5" fill="#e67700" font-family="Arial,sans-serif" font-size="22">e falhas parciais.</text><text x="100" y="810.0" fill="#9c36b5" font-family="Arial,sans-serif" font-size="25">Qual serviço muda ou cresce em ritmo diferente hoje?</text><text x="1430" y="873.0" fill="#687078" font-family="Arial,sans-serif" font-size="18">06 / 08</text></svg>